<svg xmlns="http://www.w3.org/2000/svg" viewBox="0 0 100 100">
  <!-- Fundo circular azul escuro -->
  <circle cx="50" cy="50" r="48" fill="#1e40af" stroke="#3b82f6" stroke-width="2"/>
  
  <!-- Cabeça do robô -->
  <rect x="30" y="30" width="40" height="35" rx="5" fill="#60a5fa" stroke="#1e40af" stroke-width="1.5"/>
  
  <!-- Antena esquerda -->
  <line x1="37" y1="30" x2="37" y2="22" stroke="#fbbf24" stroke-width="2" stroke-linecap="round"/>
  <circle cx="37" cy="20" r="3" fill="#fbbf24"/>
  
  <!-- Antena direita -->
  <line x1="63" y1="30" x2="63" y2="22" stroke="#fbbf24" stroke-width="2" stroke-linecap="round"/>
  <circle cx="63" cy="20" r="3" fill="#fbbf24"/>
  
  <!-- Olhos -->
  <circle cx="40" cy="42" r="4" fill="#1e40af"/>
  <circle cx="60" cy="42" r="4" fill="#1e40af"/>
  
  <!-- Boca/display -->
  <rect x="38" y="52" width="24" height="8" rx="2" fill="#1e40af" opacity="0.6"/>
  
  <!-- Corpo do robô -->
  <rect x="32" y="65" width="36" height="20" rx="3" fill="#60a5fa" stroke="#1e40af" stroke-width="1.5"/>
  
  <!-- Detalhes do corpo -->
  <circle cx="43" cy="75" r="2.5" fill="#1e40af"/>
  <circle cx="57" cy="75" r="2.5" fill="#1e40af"/>
  
  <!-- Braços -->
  <rect x="20" y="68" width="10" height="12" rx="2" fill="#60a5fa" stroke="#1e40af" stroke-width="1.5"/>
  <rect x="70" y="68" width="10" height="12" rx="2" fill="#60a5fa" stroke="#1e40af" stroke-width="1.5"/>
  
  <!-- RAIO DE ZEUS - símbolo principal -->
  <g transform="translate(65, 35)">
    <!-- Raio amarelo brilhante -->
    <path d="M 0,-8 L 3,0 L -2,0 L 2,10 L -3,2 L 2,2 Z" 
          fill="#fbbf24" 
          stroke="#f59e0b" 
          stroke-width="0.5"
          filter="url(#glow)"/>
  </g>
  
  <!-- Segundo raio menor -->
  <g transform="translate(35, 45) scale(0.6)">
    <path d="M 0,-6 L 2,0 L -1,0 L 1,8 L -2,2 L 1,2 Z" 
          fill="#fbbf24" 
          opacity="0.8"/>
  </g>
  
  <!-- Efeito de brilho para o raio -->
  <defs>
    <filter id="glow">
      <feGaussianBlur stdDeviation="0.5" result="coloredBlur"/>
      <feMerge>
        <feMergeNode in="coloredBlur"/>
        <feMergeNode in="SourceGraphic"/>
      </feMerge>
    </filter>
  </defs>
  
  <!-- Pequenos detalhes de energia ao redor -->
  <circle cx="75" cy="40" r="1.5" fill="#fbbf24" opacity="0.7"/>
  <circle cx="78" cy="48" r="1" fill="#fbbf24" opacity="0.6"/>
  <circle cx="72" cy="52" r="1.2" fill="#fbbf24" opacity="0.7"/>
</svg>
