<svg xmlns="http://www.w3.org/2000/svg" viewBox="0 0 100 100">
  <defs>
    <linearGradient id="robotGradient" x1="0%" y1="0%" x2="100%" y2="100%">
      <stop offset="0%" style="stop-color:#667eea;stop-opacity:1" />
      <stop offset="100%" style="stop-color:#764ba2;stop-opacity:1" />
    </linearGradient>
  </defs>
  
  <!-- Corpo do robô -->
  <rect x="25" y="35" width="50" height="45" rx="8" fill="url(#robotGradient)"/>
  
  <!-- Cabeça do robô -->
  <rect x="30" y="15" width="40" height="25" rx="6" fill="url(#robotGradient)"/>
  
  <!-- Antena -->
  <line x1="50" y1="15" x2="50" y2="8" stroke="#667eea" stroke-width="3" stroke-linecap="round"/>
  <circle cx="50" cy="6" r="4" fill="#ffd700"/>
  
  <!-- Olhos -->
  <circle cx="40" cy="25" r="4" fill="#ffffff"/>
  <circle cx="60" cy="25" r="4" fill="#ffffff"/>
  <circle cx="41" cy="25" r="2" fill="#667eea"/>
  <circle cx="61" cy="25" r="2" fill="#667eea"/>
  
  <!-- Boca/Display -->
  <rect x="38" y="32" width="24" height="4" rx="2" fill="#ffffff" opacity="0.8"/>
  
  <!-- Braços -->
  <rect x="15" y="45" width="8" height="25" rx="4" fill="url(#robotGradient)"/>
  <rect x="77" y="45" width="8" height="25" rx="4" fill="url(#robotGradient)"/>
  
  <!-- Detalhes do peito -->
  <circle cx="50" cy="52" r="6" fill="#ffffff" opacity="0.3"/>
  <circle cx="38" cy="62" r="3" fill="#ffffff" opacity="0.3"/>
  <circle cx="62" cy="62" r="3" fill="#ffffff" opacity="0.3"/>
  
  <!-- Base -->
  <rect x="35" y="80" width="30" height="8" rx="4" fill="url(#robotGradient)"/>
  
  <!-- Efeito de brilho -->
  <path d="M 32 20 Q 35 18 38 20" stroke="#ffffff" stroke-width="2" fill="none" opacity="0.5"/>
</svg>